<svg width="230" height="126" viewBox="0 0 230 126" fill="none" xmlns="http://www.w3.org/2000/svg">
<path d="M78.562 70.6531C79.0479 71.6268 79.5998 72.5836 80.2171 73.5074C83.6972 78.7155 89.0409 82.567 95.8952 82.567C102.694 82.567 107.024 80.5032 109.883 77.5703C112.797 74.5804 114.397 70.4667 115.265 66.0058C117.262 55.7444 110.949 44.329 98.321 42.5475C97.9962 42.5017 97.6749 42.462 97.357 42.4283C105.344 45.7617 109.166 55.09 107.719 63.5403C106.352 71.5235 102.552 79.1397 91.6194 79.1397C85.8326 79.1397 81.3889 75.4367 78.562 70.6531Z" fill="white"/>
<path d="M34.0325 15.7378C30.1486 21.5721 27.3001 28.0727 25.7838 33.3308C26.8647 32.5177 27.9868 31.7271 29.1491 30.9602C38.9339 24.5043 51.6161 19.6852 66.6718 17.2795C64.5769 10.4828 63.0067 6.48671 61.3314 4.12386C60.4171 2.83431 59.5309 2.12545 58.5726 1.70443C57.5792 1.26805 56.3418 1.06708 54.6004 1.06707C46.857 1.06705 39.6288 7.33128 34.0325 15.7378Z" fill="white"/>
<path d="M192.499 66.5C190.364 70.6342 187.667 72.8836 184.027 75.2111C177.113 79.6321 171.703 81.3784 166.6 81.9105C166.6 81.9628 166.6 82.015 166.6 82.0671C166.6 82.2734 166.6 82.4856 166.601 82.7034C166.607 86.4098 166.615 91.7302 164.986 97.4649C174.465 97.306 183.825 96.507 198.655 93.1174C208.335 90.9047 215.057 86.3087 219.713 80.5211C222.133 77.5126 223.054 76.0584 224.499 72.5C218.999 67.6871 206.9 61.8659 192.499 66.5Z" fill="white"/>
<path d="M193.136 40.0808C193.547 41.9823 194.016 43.9814 194.541 46.0821C195.623 50.4097 196.009 53.062 195.499 56.5C202.022 53.2092 211.4 53.352 228.082 59.5424C228.232 58.8642 228.371 58.1831 228.499 57.5C229.61 51.5581 229.803 47.2589 229.608 41.7793C223.626 36.7224 210.493 31.2789 193.136 40.0808Z" fill="white"/>
<path d="M216.059 9.25087C211.042 6.88318 205.118 6.8601 199.829 8.92962C197.237 9.9438 195.342 11.3351 193.983 13.1271C192.618 14.9275 191.701 17.2566 191.268 20.2875C190.94 22.583 190.896 25.2306 191.125 28.2707C198.122 24.6971 211.827 20.2718 227.413 25.1401C227.325 24.7465 227.239 24.3787 227.157 24.0383C225.287 16.3253 221.029 11.5963 216.059 9.25087Z" fill="white"/>
<path d="M58.7374 69.1406C52.3802 64.2652 45.1933 64.3977 41.1313 65.0702C40.3365 65.2511 39.5516 65.4692 38.797 65.7262C39.6259 65.927 40.3499 66.3243 40.9739 66.9508C41.454 67.4327 41.8018 67.9806 42.075 68.4608C42.2267 68.7274 42.4056 69.0681 42.5735 69.3877L42.5741 69.3888C42.676 69.5827 42.7737 69.7689 42.8588 69.9259L43.1004 70.3717V70.8788C43.1004 71.7964 42.8968 72.6375 42.3863 73.424C41.9288 74.1287 41.2943 74.6721 40.7081 75.1358L40.1627 75.5671H39.4674C37.1609 75.5671 35.2595 75.1537 33.8145 74.487C33.6147 74.3948 33.4169 74.2944 33.2235 74.1858L32.5986 74.8922C32.4591 75.0499 32.3205 75.2044 32.1826 75.3558C32.5042 78.0917 33.6045 81.2731 35.5596 84.1233C38.0098 87.6955 41.7202 90.633 46.755 91.5636C47.728 91.5205 49.065 91.0838 50.5685 90.0926C52.1278 89.0647 53.7446 87.5173 55.1415 85.4935C57.8253 81.6053 59.6585 76.0158 58.7374 69.1406Z" fill="white"/>
<path d="M26.3793 50.5656C25.3313 51.8277 24.3658 53.4477 23.6729 55.1377C21.1471 61.2977 19.9185 66.4528 19.794 70.1384C19.7316 71.9867 19.9521 73.3327 20.3182 74.2217C20.667 75.0687 21.0935 75.3971 21.4945 75.5315C22.1144 75.7393 22.6328 75.7255 23.1261 75.5615C23.6529 75.3864 24.2684 74.9983 24.9645 74.2753C26.2551 72.9348 27.562 70.7204 28.8885 67.6731C27.167 70.7652 25.3462 72.3199 23.3056 71.6358C20.3472 70.6441 20.6746 63.6975 24.5964 53.9238C25.0677 52.7491 25.6851 51.5818 26.3793 50.5656Z" fill="white"/>
<path fill-rule="evenodd" clip-rule="evenodd" d="M158.157 0.398771C156.41 -0.125531 154.258 -0.175 151.595 0.504817C142.705 2.77464 134.703 8.83486 128.44 15.2392C122.192 21.6284 117.858 28.171 116.28 31.0908C115.755 32.0625 114.541 32.4244 113.569 31.8992C112.598 31.3739 112.236 30.1604 112.761 29.1887C113.404 27.999 114.423 26.3264 115.776 24.3572C107.983 21.3469 99.1042 19.5671 89.1002 19.5671C64.5965 19.5671 44.8786 25.3742 31.352 34.2989C17.8263 43.2231 10.601 55.1624 10.601 67.5671V69.2221L8.97518 69.5318C4.67653 70.3505 1.39685 73.8452 0.346537 79.0269C-0.703789 84.2086 0.532429 91.0278 5.44769 97.904C15.2684 111.643 39.8475 125.567 89.1002 125.567C125.696 125.567 143.12 117.475 151.479 108.342C154.424 105.124 156.302 101.72 157.499 98.3738L157.677 97.8618C157.677 97.8618 157.743 97.6654 157.797 97.4999C159.608 91.9144 159.604 86.552 159.6 82.5629L159.6 82.0671C159.6 81.064 159.705 78.5968 159.6 77.5C159 77.2 159 77.2 158.5 77C158.5 75.2111 159.095 72.0479 159.444 71L162.619 58.5197C166.305 46.9645 168.765 30.6112 167.446 17.9989C166.783 11.6565 165.194 6.5767 162.625 3.4702C161.369 1.95236 159.894 0.920145 158.157 0.398771ZM62.6302 68.1041C63.8487 76.2245 61.73 82.9898 58.4335 87.7657C56.7675 90.1794 54.7898 92.1008 52.7701 93.4322C50.7776 94.7457 48.615 95.5671 46.597 95.5671H46.4244L46.2543 95.5375C39.8852 94.4297 35.2397 90.7285 32.261 86.3859C30.5813 83.9371 29.4043 81.2464 28.7366 78.6338C27.8209 79.3592 26.9438 79.9281 26.1014 80.3512C24.1071 81.3528 22.1958 81.5838 20.4831 80.9774C18.8124 80.3858 17.6846 79.121 16.9595 77.8471C16.2325 76.5699 15.818 75.1319 15.6241 73.8712L15.6046 73.7442L15.6014 73.6158C15.5143 70.0437 15.9029 64.3556 17.3521 58.7537C18.7845 53.2164 21.3511 47.3794 25.9009 43.9671C28.224 42.2247 30.5595 41.5834 32.7728 42.1837C34.8918 42.7585 36.4146 44.3481 37.469 45.9832C39.2824 48.795 40.2317 52.543 40.5146 54.9637C42.2232 55.9406 45.803 56.7894 51.5526 55.4679C58.0813 53.9674 67.1791 49.6987 78.8228 40.0285C87.9563 32.4431 105.677 31.2933 115.688 44.3503C125.427 57.0529 123.805 74.1915 115.515 82.4813C113.017 84.9791 107.117 88.3999 99.9791 89.542C92.7579 90.6974 84.1087 89.5414 76.3479 82.6298C72.6003 79.9305 69.9145 76.5931 67.5392 73.6416L67.4795 73.5674C65.786 71.4632 64.2766 69.602 62.6302 68.1041ZM143.94 13.4759C146.477 12.0981 149.103 11.1397 151.521 11.1397C153.777 11.1397 155.626 12.0898 156.992 13.7532C158.29 15.3337 159.101 17.4873 159.612 19.9146C160.636 24.7734 160.613 31.5149 160.015 39.2929C159.208 49.7735 158.547 52.4957 157.313 57.5743C156.704 60.0808 155.956 63.1613 154.982 68.0319C154.81 68.889 154.102 69.5356 153.233 69.6284C152.364 69.7212 151.535 69.2388 151.186 68.4371C148.816 62.9861 144.073 56.6362 138.78 50.7235C133.515 44.8409 127.839 39.537 123.752 36.1861L122.406 35.0822L123.314 33.5966C126.193 28.886 131.035 23.3552 136.137 18.9944C138.694 16.8085 141.365 14.8741 143.94 13.4759Z" fill="white"/>
</svg>
